<svg width="90" height="90" viewBox="0 0 90 90" fill="none" xmlns="http://www.w3.org/2000/svg">
<g clip-path="url(#clip0_55_24)">
<path d="M89.9725 52.4945C89.8592 51.9166 89.408 51.4634 88.8309 51.3464C88.7811 51.3363 83.8161 50.2989 80.1923 47.0308C80.4975 46.4187 80.6701 45.7294 80.6701 45.0001C80.6701 44.4175 80.5593 43.8606 80.3597 43.3478H80.8871C83.34 43.3478 85.3356 41.2986 85.3356 38.7797V35.6695C85.3356 29.3712 81.0072 23.7178 73.1478 19.7508C69.6099 17.9651 65.4592 16.5667 60.9029 15.595C60.867 15.586 60.831 15.5783 60.7949 15.572C55.9101 14.5389 50.5623 13.9954 45.0005 13.9954C34.2027 13.9954 24.2064 16.0393 16.8531 19.7508C8.99366 23.7178 4.66525 29.3712 4.66525 35.6695V38.7797C4.66525 40.9518 6.14959 42.7732 8.13097 43.2341C7.90218 43.7776 7.77544 44.3743 7.77544 45.0001C7.77544 46.0855 8.15663 47.0831 8.79131 47.8679C6.20421 48.7696 2.97544 49.7626 1.45787 49.7626C0.807447 49.7626 0.235755 50.1933 0.0565306 50.8185C-0.122694 51.4436 0.133702 52.1121 0.685178 52.4568L4.90551 55.0944C2.91927 56.1079 1.55506 58.1725 1.55506 60.551C1.55506 63.5493 3.7217 66.0493 6.57121 66.572C6.34553 67.1126 6.22035 67.7051 6.22035 68.3265C6.22035 72.5603 9.66488 76.0048 13.8986 76.0048H76.1024C80.3362 76.0048 83.7807 72.5603 83.7807 68.3265C83.7807 67.7051 83.6555 67.1126 83.4299 66.572C86.2794 66.0493 88.446 63.5493 88.446 60.551C88.446 58.7642 87.6562 57.111 86.3762 55.9724L89.3519 53.9885C89.8417 53.662 90.0861 53.0724 89.9725 52.4945ZM85.1648 53.2753L82.905 54.782C82.8288 54.8234 82.7567 54.8718 82.6887 54.9263L79.5285 57.033C79.236 57.2282 78.8678 57.262 78.5441 57.1234L68.9012 52.9907C68.2552 52.7137 67.5037 52.9373 67.1138 53.522L65.5834 55.8177C64.6861 54.9599 62.8017 52.9132 61.2037 49.5682H63.6615C64.8622 49.5682 65.9554 49.1018 66.7717 48.3416C67.5879 49.1018 68.6811 49.5682 69.8819 49.5682H71.8018C72.1121 50.5154 72.6851 51.4578 73.5177 52.3837C74.3625 53.3231 75.1725 53.904 75.2621 53.9671C75.5171 54.147 75.8095 54.2333 76.0991 54.2333C76.5557 54.2333 77.0054 54.0187 77.2898 53.6176C77.7545 52.962 77.5996 52.0528 76.9455 51.5863C76.5095 51.2753 75.6116 50.4954 75.0187 49.5682H76.1022C76.8316 49.5682 77.5209 49.3956 78.1332 49.0902C78.1655 49.1255 78.1995 49.1598 78.2356 49.1924C80.5074 51.2426 83.1589 52.5223 85.1648 53.2753ZM19.197 49.5684H23.2288C23.5534 49.5684 23.8703 49.5338 24.1761 49.469C24.0336 49.7631 23.8629 50.0452 23.6574 50.2954C23.1464 50.9176 23.2364 51.8363 23.8586 52.3473C24.13 52.5701 24.4575 52.6787 24.7831 52.6787C25.2044 52.6787 25.6223 52.497 25.9106 52.1461C26.6856 51.2028 27.1418 50.0788 27.411 49.0869C28.0251 49.3944 28.7171 49.5686 29.4494 49.5686H40.9985C41.6773 50.806 43.1579 53.1764 45.5658 55.4017C45.8461 55.6608 46.2011 55.7889 46.5549 55.7889C46.9473 55.7889 47.3386 55.6315 47.6259 55.3205C48.1725 54.7291 48.1362 53.8068 47.5449 53.2604C46.1618 51.9819 45.124 50.6365 44.4117 49.5686H46.5552C47.756 49.5686 48.8492 49.1022 49.6654 48.342C50.4817 49.1022 51.5749 49.5686 52.7756 49.5686H58.0099C59.2586 52.5493 60.7634 54.749 61.9929 56.2304L55.5244 53.8043C53.6317 53.0945 51.4853 53.5595 50.0558 54.9888L47.43 57.6146C46.8319 58.2127 45.898 58.2897 45.2099 57.7983L36.5171 51.5892C36.1221 51.3072 35.6124 51.2403 35.1578 51.4106L23.596 55.7462L21.1496 53.2998C20.6367 52.7866 19.8245 52.7291 19.2441 53.1643L14.9648 56.3739C14.2822 56.8859 13.3372 56.9259 12.6135 56.4738L11.7687 55.9458C13.5651 54.6805 16.4554 52.4624 19.197 49.5684ZM12.3433 46.6524C11.4322 46.6524 10.6911 45.9112 10.6911 45.0001C10.6911 44.089 11.4322 43.3478 12.3433 43.3478H23.229C24.1401 43.3478 24.8813 44.089 24.8813 45.0001C24.8813 45.9112 24.1401 46.6524 23.229 46.6524H12.3433ZM27.7971 45.0001C27.7971 44.089 28.5383 43.3478 29.4494 43.3478H46.5554C47.4665 43.3478 48.2077 44.089 48.2077 45.0001C48.2077 45.9112 47.4665 46.6524 46.5554 46.6524H41.8618C41.8604 46.6524 41.8589 46.6524 41.8575 46.6524H29.4494C28.5383 46.6524 27.7971 45.9112 27.7971 45.0001ZM51.1235 45.0001C51.1235 44.089 51.8647 43.3478 52.7758 43.3478H63.6615C64.5726 43.3478 65.3138 44.089 65.3138 45.0001C65.3138 45.9112 64.5726 46.6524 63.6615 46.6524H52.7758C51.8647 46.6524 51.1235 45.9112 51.1235 45.0001ZM68.2296 45.0001C68.2296 44.089 68.9708 43.3478 69.8819 43.3478H76.1022C77.0133 43.3478 77.7545 44.089 77.7545 45.0001C77.7545 45.9112 77.0133 46.6524 76.1022 46.6524H69.8819C68.9708 46.6524 68.2296 45.9112 68.2296 45.0001ZM7.58086 38.7797V35.6695C7.58086 32.3045 9.17483 29.2001 12.0228 26.5252L19.088 33.5903C19.3726 33.8749 19.7458 34.0174 20.1188 34.0174C20.4918 34.0174 20.8651 33.8751 21.1496 33.5903C21.719 33.021 21.719 32.0978 21.1496 31.5287L14.2915 24.6705C15.2716 23.9686 16.3489 23.3057 17.5125 22.6845L28.4184 33.5903C28.7029 33.8749 29.0762 34.0174 29.4492 34.0174C29.8222 34.0174 30.1954 33.8751 30.48 33.5903C31.0494 33.021 31.0494 32.0978 30.48 31.5287L20.2998 21.3484C21.4941 20.8354 22.7596 20.3617 24.0876 19.9292L37.7489 33.5905C38.0335 33.8751 38.4067 34.0176 38.7798 34.0176C39.1528 34.0176 39.526 33.8753 39.8106 33.5905C40.38 33.0212 40.38 32.098 39.8106 31.5289L27.2835 19.0012C28.6555 18.6484 30.0821 18.3366 31.5581 18.0687L47.0797 33.5903C47.3643 33.8749 47.7375 34.0174 48.1105 34.0174C48.4836 34.0174 48.8568 33.8751 49.1414 33.5903C49.7107 33.021 49.7107 32.0978 49.1414 31.5287L35.1321 17.5194C36.6755 17.3233 38.2633 17.1726 39.8903 17.0706L56.4103 33.5905C56.6949 33.8751 57.0681 34.0176 57.4411 34.0176C57.8141 34.0176 58.1874 33.8753 58.4719 33.5905C59.0413 33.0212 59.0413 32.098 58.4719 31.5289L43.863 16.9195C44.2405 16.9145 44.6193 16.9112 45.0001 16.9112C46.4135 16.9112 47.803 16.9475 49.1672 17.0167L65.7406 33.5901C66.0252 33.8747 66.3984 34.0172 66.7715 34.0172C67.1445 34.0172 67.5177 33.8749 67.8023 33.5901C68.3717 33.0208 68.3717 32.0976 67.8023 31.5285L53.6473 17.3734C55.7875 17.6084 57.847 17.9303 59.8126 18.3317L75.0712 33.5903C75.3558 33.8749 75.729 34.0174 76.1021 34.0174C76.4751 34.0174 76.8483 33.8751 77.1329 33.5903C77.7022 33.021 77.7022 32.0978 77.1329 31.5287L65.3544 19.7502C75.7706 23.0075 82.4196 28.795 82.4196 35.6697V38.7799C82.4196 39.691 81.7321 40.4322 80.8869 40.4322H9.11341C8.26841 40.432 7.58086 39.6908 7.58086 38.7797ZM12.6186 49.5682H15.0395C12.5208 51.8833 10.1396 53.5471 9.06792 54.2576L5.4255 51.9811C8.35977 51.1932 11.5874 49.969 12.6186 49.5682ZM76.1022 73.089H13.8984C11.2725 73.089 9.13595 70.9525 9.13595 68.3265C9.13595 67.4154 9.87715 66.6742 10.7882 66.6742H79.2124C80.1235 66.6742 80.8647 67.4154 80.8647 68.3265C80.8647 70.9525 78.7282 73.089 76.1022 73.089ZM82.3226 63.7584H7.67805C5.90952 63.7584 4.47067 62.3196 4.47067 60.551C4.47067 58.7825 5.90952 57.3437 7.67805 57.3437H8.504L11.0682 58.9462C12.8058 60.0322 15.0747 59.9358 16.7143 58.7065L18.5315 57.3437H21.0701L22.1982 58.4717C22.6025 58.876 23.2057 59.0066 23.741 58.8058L27.6404 57.3437H39.5569L43.5154 60.171C44.3313 60.7538 45.275 61.0395 46.2133 61.0395C47.4063 61.0395 48.5907 60.5777 49.4918 59.6763L51.8247 57.3437H56.6313C56.6395 57.3437 56.6472 57.3425 56.6554 57.3425L62.4697 59.5229C64.4235 60.2558 66.5965 59.5548 67.7541 57.8183L68.0706 57.3437H71.6564L77.3959 59.8034C78.6285 60.3316 80.0306 60.2029 81.1462 59.4592L83.7864 57.699C84.8362 58.2402 85.53 59.3371 85.53 60.551C85.53 62.3196 84.0912 63.7584 82.3226 63.7584Z" fill="black"/>
</g>
<defs>
<clipPath id="clip0_55_24">
<rect width="90" height="90" fill="white"/>
</clipPath>
</defs>
</svg>
