<svg width="90" height="90" viewBox="0 0 90 90" fill="none" xmlns="http://www.w3.org/2000/svg">
<path d="M90 36.4471V22.0626C90 21.0444 89.1715 20.216 88.1534 20.216H86.8899V15.4535C86.8899 12.9347 84.8407 10.8855 82.3218 10.8855H66.6739V10.7883C66.6739 8.26948 64.6247 6.22028 62.1058 6.22028H27.8942C25.3753 6.22028 23.3261 8.26948 23.3261 10.7883V10.8855H7.67819C5.15935 10.8855 3.11015 12.9347 3.11015 15.4535V20.216H1.84665C0.828467 20.216 0 21.0444 0 22.0626V36.4471C0 38.8528 1.23823 40.9739 3.11015 42.2094V80.8639H1.45788C0.652743 80.8639 0 81.5167 0 82.3218C0 83.1269 0.652743 83.7797 1.45788 83.7797H88.5421C89.3473 83.7797 90 83.1269 90 82.3218C90 81.5167 89.3473 80.8639 88.5421 80.8639H86.8899V42.2094C88.7618 40.9739 90 38.8528 90 36.4471ZM26.2419 10.7883C26.2419 9.87723 26.9831 9.13604 27.8942 9.13604H62.1058C63.0169 9.13604 63.7581 9.87723 63.7581 10.7883V12.3358C63.7581 12.3383 63.7577 12.3407 63.7577 12.3434C63.7577 12.3446 63.7579 12.3459 63.7579 12.3473C63.7558 13.2564 63.0156 13.9957 62.1058 13.9957H27.8942C26.9831 13.9957 26.2419 13.2545 26.2419 12.3434V10.7883ZM6.02592 15.4535C6.02592 14.5425 6.76711 13.8013 7.67819 13.8013H23.566C24.176 15.6071 25.885 16.9114 27.8942 16.9114H62.1058C64.115 16.9114 65.824 15.6071 66.434 13.8013H82.3218C83.2329 13.8013 83.9741 14.5425 83.9741 15.4535V20.216H6.02592V15.4535ZM76.1987 23.1317V36.4471C76.1987 38.6444 74.4111 40.4319 72.2138 40.4319C70.0165 40.4319 68.2289 38.6444 68.2289 36.4471V23.1317H76.1987ZM65.3132 23.1317V36.4471C65.3132 38.6444 63.5256 40.4319 61.3283 40.4319C59.131 40.4319 57.3434 38.6444 57.3434 36.4471V23.1317H65.3132ZM54.4276 23.1317V36.4471C54.4276 38.6444 52.6401 40.4319 50.4428 40.4319C48.2454 40.4319 46.4579 38.6444 46.4579 36.4471V23.1317H54.4276ZM43.5421 23.1317V36.4471C43.5421 38.6444 41.7546 40.4319 39.5572 40.4319C37.3599 40.4319 35.5724 38.6444 35.5724 36.4471V23.1317H43.5421ZM32.6566 23.1317V36.4471C32.6566 38.6444 30.869 40.4319 28.6717 40.4319C26.4744 40.4319 24.6868 38.6444 24.6868 36.4471V23.1317H32.6566ZM21.7711 23.1317V36.4471C21.7711 38.6444 19.9835 40.4319 17.7862 40.4319C15.5889 40.4319 13.8013 38.6444 13.8013 36.4471V23.1317H21.7711ZM2.91577 36.4471V23.1317H10.8855V36.4471C10.8855 38.6444 9.09797 40.4319 6.90065 40.4319C4.70333 40.4319 2.91577 38.6444 2.91577 36.4471ZM27.9914 80.8639H12.2462V77.5594H27.9914V80.8639ZM27.9914 74.6436H12.2462V49.568H27.9914V74.6436ZM83.9741 80.8639H30.9071V48.1101C30.9071 47.305 30.2544 46.6522 29.4492 46.6522H10.7883C9.9832 46.6522 9.33045 47.305 9.33045 48.1101V80.8639H6.02592V43.2904C6.31264 43.3269 6.60421 43.3477 6.90065 43.3477C9.11041 43.3477 11.0795 42.3023 12.3434 40.6815C13.6073 42.3023 15.5764 43.3477 17.7862 43.3477C19.9959 43.3477 21.9651 42.3023 23.2289 40.6815C24.4928 42.3023 26.4619 43.3477 28.6717 43.3477C30.8815 43.3477 32.8506 42.3023 34.1145 40.6815C35.3784 42.3023 37.3475 43.3477 39.5572 43.3477C41.767 43.3477 43.7361 42.3023 45 40.6815C46.2639 42.3023 48.233 43.3477 50.4428 43.3477C52.6525 43.3477 54.6216 42.3023 55.8855 40.6815C57.1494 42.3023 59.1185 43.3477 61.3283 43.3477C63.5381 43.3477 65.5072 42.3023 66.7711 40.6815C68.035 42.3023 70.0041 43.3477 72.2138 43.3477C74.4236 43.3477 76.3927 42.3023 77.6566 40.6815C78.9205 42.3023 80.8896 43.3477 83.0994 43.3477C83.3958 43.3477 83.6874 43.3269 83.9741 43.2904V80.8639ZM83.0994 40.4319C80.902 40.4319 79.1145 38.6444 79.1145 36.4471V23.1317H87.0842V36.4471C87.0842 38.6444 85.2967 40.4319 83.0994 40.4319Z" fill="black"/>
<path d="M79.2117 46.6522H35.6696C34.8644 46.6522 34.2117 47.305 34.2117 48.1101V76.1015C34.2117 76.9066 34.8644 77.5594 35.6696 77.5594H79.2117C80.0168 77.5594 80.6696 76.9066 80.6696 76.1015V48.1101C80.6696 47.305 80.0168 46.6522 79.2117 46.6522ZM77.7538 74.6436H68.229V69.784H72.9914C73.7965 69.784 74.4493 69.1312 74.4493 68.3261C74.4493 67.5209 73.7965 66.8682 72.9914 66.8682H60.5508C59.7456 66.8682 59.0929 67.5209 59.0929 68.3261C59.0929 69.1312 59.7456 69.784 60.5508 69.784H65.3132V74.6436H49.568V69.784H54.3305C55.1356 69.784 55.7883 69.1312 55.7883 68.3261C55.7883 67.5209 55.1356 66.8682 54.3305 66.8682H41.8899C41.0847 66.8682 40.432 67.5209 40.432 68.3261C40.432 69.1312 41.0847 69.784 41.8899 69.784H46.6523V74.6436H37.1274V49.568H46.6523V51.4941C43.9777 52.1502 41.987 54.5666 41.987 57.4406C41.987 58.2457 42.6398 58.8984 43.4449 58.8984H46.6523V58.9956C46.6523 59.8008 47.305 60.4535 48.1102 60.4535C48.9153 60.4535 49.568 59.8008 49.568 58.9956V58.8984H52.7754C53.5805 58.8984 54.2333 58.2457 54.2333 57.4406C54.2333 54.5666 52.2426 52.1502 49.568 51.4941V49.568H65.3132V51.4941C62.6386 52.1502 60.648 54.5666 60.648 57.4406C60.648 58.2457 61.3007 58.8984 62.1058 58.8984H65.3132V58.9956C65.3132 59.8008 65.9659 60.4535 66.7711 60.4535C67.5762 60.4535 68.229 59.8008 68.229 58.9956V58.8984H71.4363C72.2414 58.8984 72.8942 58.2457 72.8942 57.4406C72.8942 54.5666 70.9035 52.1502 68.229 51.4941V49.568H77.7538V74.6436ZM48.1102 54.2332C49.3542 54.2332 50.4348 54.9451 50.9666 55.9827H45.2537C45.7853 54.9451 46.8661 54.2332 48.1102 54.2332ZM66.7711 54.2332C68.0151 54.2332 69.0957 54.9451 69.6275 55.9827H63.9146C64.4462 54.9451 65.527 54.2332 66.7711 54.2332Z" fill="black"/>
<path d="M24.784 66.6739C25.5891 66.6739 26.2419 66.0211 26.2419 65.216V62.1058C26.2419 61.3007 25.5891 60.6479 24.784 60.6479C23.9789 60.6479 23.3261 61.3007 23.3261 62.1058V65.216C23.3261 66.0211 23.9789 66.6739 24.784 66.6739Z" fill="black"/>
</svg>
