<svg width="90" height="90" viewBox="0 0 90 90" fill="none" xmlns="http://www.w3.org/2000/svg">
<g clip-path="url(#clip0_55_11)">
<path d="M87.2534 6.52518L68.9319 1.37637V1.32064C68.9319 0.591328 68.3406 0 67.6113 0C66.8819 0 66.2906 0.591328 66.2906 1.32064V28.7258H64.4177C62.9128 28.7258 61.6885 29.9501 61.6885 31.455V43.4178H43.8926C42.3877 43.4178 41.1634 44.6421 41.1634 46.147V58.1098H23.3671C21.8623 58.1098 20.6379 59.3341 20.6379 60.8389V72.8019H2.84185C1.33699 72.8019 0.112671 74.0262 0.112671 75.5311V87.271C0.112671 88.7759 1.33699 90.0002 2.84185 90.0002H73.1461C73.8754 90.0002 74.4667 89.4089 74.4667 88.6795C74.4667 87.9502 73.8754 87.3589 73.1461 87.3589H64.3298V44.7383V31.4548C64.3298 31.4063 64.3691 31.3668 64.4178 31.3668H82.126C82.1746 31.3668 82.2141 31.4061 82.2141 31.4548V87.2708C82.2141 87.3193 82.1746 87.3589 82.126 87.3589H79.4521C78.7227 87.3589 78.1314 87.9502 78.1314 88.6795C78.1314 89.4089 78.7227 90.0002 79.4521 90.0002H82.126C83.6309 90.0002 84.8552 88.7759 84.8552 87.271V31.4548C84.8552 29.95 83.6309 28.7256 82.126 28.7256H68.9319V18.6261L72.373 17.659C73.0751 17.4618 73.4843 16.7324 73.2871 16.0304C73.0898 15.3283 72.3609 14.9186 71.6584 15.1163L68.9319 15.8825V4.11979L86.5389 9.06768C87.1952 9.25225 87.2462 9.82881 87.2462 10.0013C87.2462 10.1735 87.195 10.7503 86.5389 10.9348L77.2043 13.558C76.5023 13.7552 76.0931 14.4846 76.2903 15.1866C76.4875 15.8887 77.216 16.2986 77.9189 16.1007L87.2532 13.4775C88.8286 13.0349 89.8871 11.6378 89.8871 10.0014C89.8873 8.36473 88.8288 6.96779 87.2534 6.52518ZM2.75396 87.2708V75.5309C2.75396 75.4824 2.79333 75.4429 2.84203 75.4429H20.6381V87.3589H2.84185C2.79333 87.3589 2.75396 87.3193 2.75396 87.2708ZM42.484 70.2796C41.7547 70.2796 41.1634 70.871 41.1634 71.6003V87.3589H23.2792V74.1224V60.8389C23.2792 60.7904 23.3186 60.7509 23.3673 60.7509H41.1636V65.5429C41.1636 66.2722 41.7549 66.8635 42.4842 66.8635C43.2135 66.8635 43.8049 66.2722 43.8049 65.5429V46.1468C43.8049 46.0983 43.8442 46.0587 43.8929 46.0587H61.689V87.3587H43.8045V71.6001C43.8045 70.8708 43.2133 70.2796 42.484 70.2796Z" fill="black"/>
</g>
<defs>
<clipPath id="clip0_55_11">
<rect width="90" height="90" fill="white"/>
</clipPath>
</defs>
</svg>
