<svg width="90" height="90" viewBox="0 0 90 90" fill="none" xmlns="http://www.w3.org/2000/svg">
<g clip-path="url(#clip0_55_31)">
<path d="M45 28.3421C52.8139 28.3421 59.1709 21.9851 59.1709 14.171C59.1709 6.35706 52.8139 0 45 0C37.186 0 30.829 6.35706 30.829 14.171C30.829 21.9851 37.186 28.3421 45 28.3421ZM45 2.87234C51.2301 2.87234 56.2986 7.94087 56.2986 14.171C56.2986 20.4011 51.2301 25.4698 45 25.4698C38.7699 25.4698 33.7013 20.4011 33.7013 14.171C33.7013 7.94087 38.7699 2.87234 45 2.87234Z" fill="black"/>
<path d="M45 34.0868C56.4534 34.0868 65.8574 43.0275 66.5986 54.2964H33.4072C32.6141 54.2964 31.9711 54.9392 31.9711 55.7326C31.9711 56.5259 32.6141 57.1688 33.4072 57.1688H68.0821C68.8753 57.1688 69.5183 56.5259 69.5183 55.7326C69.5183 42.2132 58.5195 31.2145 45 31.2145C31.4805 31.2145 20.4817 42.2132 20.4817 55.7326C20.4817 56.5259 21.1247 57.1688 21.9179 57.1688H27.6625C28.4557 57.1688 29.0987 56.5259 29.0987 55.7326C29.0987 54.9392 28.4557 54.2964 27.6625 54.2964H23.4011C24.1426 43.0275 33.5468 34.0868 45 34.0868Z" fill="black"/>
<path d="M26.8866 72.3278L19.0082 71.0055L15.3161 63.9214C15.0687 63.4467 14.5779 63.1489 14.0425 63.1489C13.5071 63.1489 13.0163 63.4467 12.7689 63.9214L9.07679 71.0055L1.19834 72.3278C0.670402 72.4164 0.23553 72.7912 0.0700833 73.3004C-0.0953635 73.8093 0.0361897 74.3683 0.411126 74.7501L6.00779 80.4508L4.8307 88.3522C4.75181 88.8818 4.97393 89.4111 5.40708 89.7257C5.83985 90.0406 6.41221 90.088 6.89132 89.8494L14.0423 86.2883L21.1933 89.8494C21.3959 89.9502 21.6151 90 21.8332 90C22.1314 90 22.4276 89.9073 22.6775 89.7255C23.1107 89.4109 23.3328 88.8817 23.2539 88.352L22.0768 80.4506L27.6735 74.7499C28.0484 74.3681 28.18 73.8091 28.0145 73.3002C27.8494 72.7912 27.4146 72.4164 26.8866 72.3278ZM19.5264 78.9489C19.211 79.2702 19.0643 79.721 19.1307 80.1666L20.0072 86.0497L14.6828 83.3982C14.2797 83.1973 13.8056 83.1973 13.4023 83.3982L8.07779 86.0497L8.95423 80.1666C9.02068 79.721 8.87419 79.27 8.55862 78.9489L4.39142 74.7044L10.2575 73.7197C10.7018 73.645 11.0853 73.3664 11.2935 72.967L14.0425 67.6922L16.7915 72.967C16.9997 73.3664 17.3832 73.645 17.8275 73.7197L23.6936 74.7044L19.5264 78.9489Z" fill="black"/>
<path d="M57.8442 72.3278L49.9657 71.0055L46.2736 63.9214C46.0262 63.4467 45.5354 63.1489 45 63.1489C44.4646 63.1489 43.9738 63.4467 43.7264 63.9214L40.0343 71.0055L32.1559 72.3278C31.6279 72.4164 31.1931 72.7912 31.0276 73.3004C30.8622 73.8093 30.9937 74.3683 31.3686 74.7501L36.9653 80.4508L35.7884 88.3522C35.7095 88.8818 35.9316 89.4111 36.3648 89.7257C36.7976 90.0406 37.3699 90.088 37.849 89.8494L45 86.2883L52.151 89.8494C52.3536 89.9502 52.5728 90 52.791 90C53.0891 90 53.3853 89.9073 53.6352 89.7255C54.0684 89.4109 54.2905 88.8817 54.2116 88.352L53.0347 80.4506L58.6314 74.7499C59.0063 74.3681 59.1379 73.8091 58.9724 73.3002C58.807 72.7912 58.3721 72.4164 57.8442 72.3278ZM50.4839 78.9489C50.1685 79.2702 50.0218 79.721 50.0883 80.1666L50.9645 86.0497L45.6402 83.3982C45.4385 83.2978 45.2193 83.2477 45 83.2477C44.7808 83.2477 44.5613 83.2978 44.3599 83.3982L39.0355 86.0497L39.9118 80.1666C39.9782 79.721 39.8317 79.27 39.5161 78.9489L35.3489 74.7044L41.215 73.7197C41.6593 73.645 42.0428 73.3664 42.251 72.967L45 67.6924L47.749 72.9672C47.9572 73.3666 48.3407 73.6452 48.785 73.7199L54.6511 74.7045L50.4839 78.9489Z" fill="black"/>
<path d="M89.9297 73.3004C89.7642 72.7912 89.3296 72.4164 88.8014 72.3278L80.923 71.0055L77.2309 63.9214C76.9835 63.4467 76.4927 63.1489 75.9573 63.1489C75.4219 63.1489 74.9311 63.4467 74.6837 63.9214L70.9916 71.0055L63.1131 72.3278C62.5852 72.4164 62.1503 72.7912 61.9849 73.3004C61.8194 73.8093 61.951 74.3683 62.3259 74.7501L67.9226 80.4508L66.7455 88.3522C66.6666 88.8818 66.8887 89.4111 67.3219 89.7257C67.7546 90.0406 68.327 90.088 68.8061 89.8494L75.9571 86.2883L83.1081 89.8494C83.3107 89.9502 83.5299 90 83.748 90C84.0462 90 84.3424 89.9073 84.5923 89.7255C85.0255 89.4109 85.2476 88.8817 85.1687 88.352L83.9916 80.4506L89.5883 74.7499C89.9636 74.3683 90.0951 73.8093 89.9297 73.3004ZM81.4414 78.9489C81.126 79.2702 80.9793 79.721 81.0457 80.1666L81.9222 86.0497L76.5976 83.3982C76.396 83.2978 76.1767 83.2477 75.9575 83.2477C75.738 83.2477 75.5188 83.2978 75.3173 83.3982L69.993 86.0497L70.8694 80.1666C70.9359 79.721 70.7894 79.27 70.4738 78.9489L66.3066 74.7044L72.1727 73.7197C72.6169 73.645 73.0005 73.3664 73.2086 72.967L75.9577 67.6922L78.7067 72.967C78.9148 73.3664 79.2984 73.645 79.7426 73.7197L85.6087 74.7044L81.4414 78.9489Z" fill="black"/>
<path d="M45 20.6826C46.8825 20.6826 48.6735 19.8645 49.9136 18.4381C50.4339 17.8395 50.3707 16.9324 49.7721 16.412C49.1733 15.8915 48.2662 15.9549 47.746 16.5535C47.0518 17.3522 46.0507 17.8102 45 17.8102C43.9493 17.8102 42.9484 17.3522 42.2541 16.5535C41.7336 15.9549 40.8265 15.8917 40.2279 16.412C39.6293 16.9324 39.5659 17.8395 40.0864 18.4381C41.3265 19.8643 43.1175 20.6826 45 20.6826Z" fill="black"/>
</g>
<defs>
<clipPath id="clip0_55_31">
<rect width="90" height="90" fill="white"/>
</clipPath>
</defs>
</svg>
