<svg width="90" height="90" viewBox="0 0 90 90" fill="none" xmlns="http://www.w3.org/2000/svg">
<g clip-path="url(#clip0_55_15)">
<path d="M90 54.9888C90 52.6597 89.004 50.4387 87.2979 48.8841C88.7498 47.2748 89.5674 45.1717 89.5674 42.9861C89.5674 38.2451 85.8913 34.4099 81.173 34.1963C81.1158 34.1888 81.0577 34.1847 80.9986 34.1847L60.3854 34.1638C60.445 33.7266 60.5051 33.2935 60.5642 32.8671C60.8493 30.8099 61.1188 28.8668 61.3009 26.8692C61.7078 22.4082 61.7268 17.2039 58.7825 12.4284C55.6457 7.34063 50.5417 5.44975 45.1292 7.36998C44.5825 7.56387 42.9193 8.15397 43.1624 10.3929C43.5289 13.7702 43.939 17.7604 44.2016 21.7484C44.2649 22.7072 44.1046 23.6644 43.7729 24.3091C41.7271 28.2855 39.6076 32.3116 37.5578 36.2051C36.2747 38.6422 34.9481 41.1622 33.6519 43.6465C32.9381 45.0148 32.3814 46.4694 31.9975 47.9695C31.8987 48.3557 31.5489 48.6253 31.147 48.6253H28.18V47.9261C28.18 46.6142 27.1127 45.5469 25.8008 45.5469H6.73893C3.02309 45.547 0 48.5701 0 52.2858V56.224C0 56.954 0.591855 57.5459 1.32187 57.5459C2.05189 57.5459 2.64375 56.954 2.64375 56.224V52.2858C2.64375 50.0277 4.48084 48.1906 6.73893 48.1906H25.5366V84.9377H6.73893C4.48084 84.9377 2.64375 83.1006 2.64375 80.8425V62.3923C2.64375 61.6623 2.05189 61.0705 1.32187 61.0705C0.591855 61.0705 0 61.6623 0 62.3923V80.8427C0 84.5583 3.02309 87.5814 6.73893 87.5814H25.801C27.1129 87.5814 28.1802 86.5141 28.1802 85.2022V84.031H63.3071C64.0371 84.031 64.629 83.4391 64.629 82.7091C64.629 81.9791 64.0371 81.3872 63.3071 81.3872H28.1802V51.2691H31.1472C32.7575 51.2691 34.1604 50.1817 34.5588 48.625C34.8922 47.3214 35.3758 46.0579 35.9958 44.8694C37.2897 42.3895 38.6153 39.8716 39.8971 37.4367C41.9497 33.5377 44.0722 29.5059 46.1236 25.5187C46.6734 24.4503 46.9343 23.0128 46.8396 21.5747C46.5736 17.5375 46.16 13.5125 45.7905 10.1076C45.7835 10.0431 45.7808 9.99317 45.7801 9.95555C45.8292 9.93199 45.9033 9.90035 46.0132 9.86133C50.2896 8.34399 54.0248 9.74865 56.5321 13.8157C59.069 17.9304 59.0356 22.602 58.6682 26.6289C58.4916 28.565 58.2263 30.4784 57.9456 32.5039C57.819 33.4167 57.6882 34.3607 57.565 35.3145C57.5163 35.6912 57.632 36.0707 57.8827 36.356C58.1333 36.6414 58.4945 36.8053 58.8744 36.8056L80.871 36.8279C80.8993 36.8306 80.9279 36.8323 80.9568 36.8332C84.3026 36.935 86.9237 39.6374 86.9237 42.9857C86.9237 44.7311 86.178 46.4015 84.8779 47.5687C84.4595 47.9442 84.2367 48.4815 84.2664 49.0426C84.2959 49.6025 84.5735 50.1119 85.0277 50.4403C86.4856 51.4941 87.3559 53.1942 87.3559 54.9884C87.3559 57.1062 86.1826 59.0214 84.2938 59.9864C83.8454 60.2155 83.5068 60.6248 83.3644 61.1098C83.2212 61.5981 83.2859 62.1302 83.5418 62.5695C84.0386 63.4217 84.301 64.3959 84.301 65.3866C84.301 68.0943 82.3709 70.4139 79.7117 70.9021C79.1496 71.0053 78.6751 71.3544 78.4099 71.8599C78.1437 72.3672 78.1262 72.9585 78.3617 73.4824C78.6841 74.199 78.8491 74.9633 78.8523 75.7543C78.8581 77.2079 78.2759 78.5958 77.2131 79.6628C76.1217 80.7585 74.6237 81.3871 73.1034 81.3871H69.2028C68.4728 81.3871 67.8809 81.9789 67.8809 82.7089C67.8809 83.439 68.4728 84.0308 69.2028 84.0308H73.1034C75.3216 84.0308 77.5023 83.1189 79.0861 81.5286C80.6486 79.9597 81.5043 77.9055 81.4957 75.744C81.4924 74.8981 81.3628 74.0721 81.1097 73.2785C84.5411 72.2324 86.9444 69.0511 86.9444 65.3868C86.9444 64.1948 86.6858 63.0186 86.1913 61.9429C88.5595 60.4332 90 57.8357 90 54.9888Z" fill="black"/>
<path d="M23.1961 75.318C23.1961 72.7103 21.0746 70.5888 18.4669 70.5888C15.8592 70.5888 13.7377 72.7103 13.7377 75.318C13.7377 77.9257 15.8592 80.0472 18.4669 80.0472C21.0746 80.0472 23.1961 77.9257 23.1961 75.318ZM16.3812 75.318C16.3812 74.1681 17.3168 73.2324 18.4669 73.2324C19.617 73.2324 20.5525 74.1679 20.5525 75.318C20.5525 76.468 19.617 77.4037 18.4669 77.4037C17.3168 77.4037 16.3812 76.468 16.3812 75.318Z" fill="black"/>
</g>
<defs>
<clipPath id="clip0_55_15">
<rect width="90" height="90" fill="white"/>
</clipPath>
</defs>
</svg>
