<svg width="90" height="90" viewBox="0 0 90 90" fill="none" xmlns="http://www.w3.org/2000/svg">
<g clip-path="url(#clip0_55_28)">
<path d="M43.6813 55.8665V79.547C43.6813 80.2753 44.2717 80.8658 45 80.8658C45.7283 80.8658 46.3188 80.2753 46.3188 79.547V55.8665C46.3188 55.1382 45.7283 54.5477 45 54.5477C44.2717 54.5477 43.6813 55.1382 43.6813 55.8665Z" fill="black"/>
<path d="M62.7763 13.2364L66.4664 9.54635C68.6462 7.36653 68.6462 3.8196 66.4664 1.63978C64.5542 -0.27242 61.5546 -0.54426 59.334 0.993236C58.7353 1.40785 58.586 2.22935 59.0006 2.82824C59.4153 3.42714 60.2366 3.57642 60.8356 3.16163C62.0072 2.35033 63.5911 2.49469 64.6015 3.50486C65.753 4.6564 65.753 6.53009 64.6015 7.68145L49.4975 22.7855C48.3461 23.937 46.4724 23.9372 45.3209 22.7855C44.7631 22.2277 44.456 21.486 44.456 20.6972C44.456 19.9085 44.7631 19.1668 45.3209 18.609L56.6619 7.26806C57.1769 6.75305 57.1769 5.91801 56.6619 5.40316C56.1468 4.88815 55.3118 4.88815 54.797 5.40316L53.4422 6.75797C50.818 5.75571 47.9725 5.20535 45.0003 5.20535C31.9114 5.20535 21.2627 15.8541 21.2627 28.943C21.2627 38.759 27.2516 47.2024 35.7673 50.8114V56.954C35.7673 58.4222 36.9617 59.6166 38.4299 59.6166H38.6144C38.6281 59.6166 38.6394 59.6279 38.6394 59.6416V62.6267C38.6394 62.6404 38.6281 62.6517 38.6144 62.6517H38.4299C36.9617 62.6517 35.7673 63.846 35.7673 65.3142V79.3516C35.7673 81.1029 36.4393 82.7591 37.6598 84.0152L42.4944 88.9915C43.1182 89.6339 43.955 89.992 44.8502 90.0003C44.8609 90.0003 44.8713 90.0005 44.8818 90.0005C45.7654 90.0005 46.5962 89.6583 47.2243 89.0351L48.2897 87.9782C48.8066 87.4653 48.81 86.6302 48.2971 86.1133C47.7842 85.5963 46.9491 85.5932 46.4322 86.1059L45.3668 87.1628C45.1888 87.339 44.9789 87.3593 44.8746 87.3629C44.7672 87.3621 44.5608 87.3336 44.3862 87.1539L39.5514 82.1774C38.8119 81.4164 38.4048 80.4129 38.4048 79.3518V65.3137C38.4048 65.2999 38.4161 65.2887 38.4299 65.2887H38.6144C40.0824 65.2887 41.2769 64.0944 41.2769 62.6262V59.6412C41.2769 58.173 40.0824 56.9788 38.6144 56.9788H38.4299C38.4161 56.9788 38.4048 56.9675 38.4048 56.9536V51.7472C40.4997 52.354 42.7126 52.6803 45.0003 52.6803C47.2878 52.6803 49.5001 52.3541 51.5947 51.7475L51.5903 67.557L50.0725 69.4067C49.2812 70.3714 49.2712 71.7796 50.0489 72.755L51.5959 74.7046V79.2932C51.5959 80.2453 51.2588 81.1711 50.6471 81.9001C50.1788 82.458 50.2515 83.2899 50.8094 83.758C51.3673 84.2264 52.1992 84.1536 52.6673 83.5957C53.6773 82.3925 54.2334 80.8645 54.2334 79.2932V74.7046C54.2334 74.1041 54.0273 73.5148 53.653 73.0451L52.1114 71.1109C52.1041 71.1018 52.1042 71.0886 52.1116 71.0796L53.6294 69.2298C54.0189 68.7549 54.2334 68.1551 54.2334 67.5411V50.811C62.7491 47.202 68.738 38.7586 68.738 28.9427C68.7377 22.9237 66.4826 17.4243 62.7763 13.2364ZM47.4091 26.2853C48.1369 26.2853 48.8645 26.1437 49.5474 25.862C48.5559 26.9148 46.8702 27.6239 45.0002 27.6239C42.0333 27.6239 39.5268 25.8401 39.5268 23.7288C39.5268 22.4533 40.4425 21.2984 41.8209 20.5835C41.8202 20.6215 41.8181 20.6593 41.8181 20.6972C41.8181 22.1906 42.3998 23.5946 43.4556 24.6505C44.5456 25.7404 45.9773 26.2853 47.4091 26.2853ZM45.0002 50.0428C33.3656 50.0428 23.9 40.5773 23.9 28.9427C23.9 17.308 33.3656 7.84252 45.0002 7.84252C47.2204 7.84252 49.3614 8.18785 51.3729 8.82666L47.3198 12.8798C46.5619 12.7706 45.7877 12.7126 45.0002 12.7126C36.0509 12.7126 28.7701 19.9934 28.7701 28.9427C28.7701 31.4592 29.3307 33.8718 30.4365 36.1137C30.7586 36.7666 31.5488 37.0351 32.2026 36.7131C32.8558 36.3908 33.1241 35.6001 32.8018 34.947C31.8768 33.0714 31.4076 31.0513 31.4076 28.9428C31.4076 21.4998 37.4219 15.4379 44.8456 15.3543L43.4558 16.7441C43.2424 16.9576 43.0493 17.186 42.8754 17.4258C39.4308 18.18 36.8893 20.719 36.8893 23.729C36.8893 27.3311 40.5278 30.2616 45.0002 30.2616C49.4725 30.2616 53.1111 27.331 53.1111 23.729C53.1111 23.4689 53.0898 23.2127 53.0525 22.9606L55.5814 20.4317C57.4616 22.7629 58.5927 25.7217 58.5927 28.9428C58.5927 36.4378 52.4951 42.5354 45.0002 42.5354C41.7903 42.5354 38.6749 41.3958 36.2281 39.3264C35.672 38.8562 34.8399 38.9257 34.3696 39.4816C33.8992 40.0378 33.9688 40.8699 34.5248 41.3402C37.4472 43.8117 41.1673 45.1729 45 45.1729C53.9493 45.1729 61.23 37.8921 61.23 28.9428C61.23 24.9941 59.8112 21.3714 57.4582 18.5547L60.9107 15.1022C64.1406 18.8097 66.1001 23.6511 66.1001 28.9428C66.1001 40.5773 56.6348 50.0428 45.0002 50.0428Z" fill="black"/>
</g>
<defs>
<clipPath id="clip0_55_28">
<rect width="90" height="90" fill="white"/>
</clipPath>
</defs>
</svg>
