<svg width="129" height="16" viewBox="0 0 129 16" fill="none" xmlns="http://www.w3.org/2000/svg">
<path d="M3.80469 6.05469L1.61719 5.86719C1.86719 5.1276 2.30208 4.54948 2.92188 4.13281C3.54688 3.71615 4.3724 3.50781 5.39844 3.50781C6.46615 3.50781 7.25521 3.72396 7.76562 4.15625C8.27604 4.58333 8.53125 5.10677 8.53125 5.72656C8.53125 5.97656 8.50781 6.24219 8.46094 6.52344C8.41927 6.80469 8.26562 7.54427 8 8.74219C7.78125 9.73177 7.67188 10.4245 7.67188 10.8203C7.67188 11.1745 7.73438 11.5677 7.85938 12H5.67969C5.59115 11.6979 5.53646 11.3854 5.51562 11.0625C5.1875 11.4271 4.8099 11.7083 4.38281 11.9062C3.95573 12.099 3.52604 12.1953 3.09375 12.1953C2.40625 12.1953 1.83854 11.9714 1.39062 11.5234C0.942708 11.0703 0.71875 10.4896 0.71875 9.78125C0.71875 8.98958 0.963542 8.35677 1.45312 7.88281C1.94792 7.40885 2.82812 7.1224 4.09375 7.02344C5.16146 6.9349 5.875 6.82812 6.23438 6.70312C6.32812 6.39062 6.375 6.14062 6.375 5.95312C6.375 5.71354 6.27865 5.51302 6.08594 5.35156C5.89323 5.1901 5.60677 5.10938 5.22656 5.10938C4.82552 5.10938 4.50781 5.19271 4.27344 5.35938C4.04427 5.52083 3.88802 5.7526 3.80469 6.05469ZM5.9375 8.13281C5.80208 8.16927 5.6224 8.20312 5.39844 8.23438C4.27344 8.36979 3.53906 8.56771 3.19531 8.82812C2.95052 9.01562 2.82812 9.26823 2.82812 9.58594C2.82812 9.84635 2.92188 10.0677 3.10938 10.25C3.29688 10.4271 3.54427 10.5156 3.85156 10.5156C4.1901 10.5156 4.50781 10.4349 4.80469 10.2734C5.10677 10.1068 5.33073 9.89583 5.47656 9.64062C5.6276 9.38021 5.76042 8.97656 5.875 8.42969L5.9375 8.13281Z" fill="#BB0000"/>
<path d="M13.8947 12V9.80469H16.09V12H13.8947ZM22.1253 3.70312H24.1722V4.92188C24.4378 4.50521 24.7972 4.16667 25.2503 3.90625C25.7034 3.64583 26.206 3.51562 26.7581 3.51562C27.7217 3.51562 28.5394 3.89323 29.2113 4.64844C29.8831 5.40365 30.2191 6.45573 30.2191 7.80469C30.2191 9.1901 29.8805 10.2682 29.2034 11.0391C28.5264 11.8047 27.706 12.1875 26.7425 12.1875C26.2842 12.1875 25.8675 12.0964 25.4925 11.9141C25.1227 11.7318 24.7321 11.4193 24.3206 10.9766V15.1562H22.1253V3.70312ZM24.2972 7.71094C24.2972 8.64323 24.4821 9.33333 24.8519 9.78125C25.2217 10.224 25.6722 10.4453 26.2034 10.4453C26.7139 10.4453 27.1383 10.2422 27.4769 9.83594C27.8154 9.42448 27.9847 8.7526 27.9847 7.82031C27.9847 6.95052 27.8102 6.30469 27.4613 5.88281C27.1123 5.46094 26.68 5.25 26.1644 5.25C25.6279 5.25 25.1826 5.45833 24.8284 5.875C24.4743 6.28646 24.2972 6.89844 24.2972 7.71094ZM37.4497 6.23438L35.4575 5.875C35.6815 5.07292 36.0669 4.47917 36.6138 4.09375C37.1606 3.70833 37.9731 3.51562 39.0513 3.51562C40.0304 3.51562 40.7596 3.63281 41.2388 3.86719C41.7179 4.09635 42.0539 4.39062 42.2466 4.75C42.4445 5.10417 42.5434 5.75781 42.5434 6.71094L42.52 9.27344C42.52 10.0026 42.5539 10.5417 42.6216 10.8906C42.6945 11.2344 42.8273 11.6042 43.02 12H40.8481C40.7908 11.8542 40.7205 11.638 40.6372 11.3516C40.6007 11.2214 40.5747 11.1354 40.5591 11.0938C40.1841 11.4583 39.783 11.7318 39.3559 11.9141C38.9289 12.0964 38.4731 12.1875 37.9888 12.1875C37.1346 12.1875 36.4601 11.9557 35.9653 11.4922C35.4757 11.0286 35.2309 10.4427 35.2309 9.73438C35.2309 9.26562 35.3429 8.84896 35.5669 8.48438C35.7908 8.11458 36.1033 7.83333 36.5044 7.64062C36.9106 7.44271 37.494 7.27083 38.2544 7.125C39.2804 6.93229 39.9914 6.7526 40.3872 6.58594V6.36719C40.3872 5.94531 40.283 5.64583 40.0747 5.46875C39.8664 5.28646 39.4731 5.19531 38.895 5.19531C38.5044 5.19531 38.1997 5.27344 37.9809 5.42969C37.7622 5.58073 37.5851 5.84896 37.4497 6.23438ZM40.3872 8.01562C40.1059 8.10938 39.6606 8.22135 39.0513 8.35156C38.4419 8.48177 38.0434 8.60938 37.8559 8.73438C37.5695 8.9375 37.4263 9.19531 37.4263 9.50781C37.4263 9.8151 37.5408 10.0807 37.77 10.3047C37.9992 10.5286 38.2908 10.6406 38.645 10.6406C39.0408 10.6406 39.4184 10.5104 39.7778 10.25C40.0434 10.0521 40.2179 9.8099 40.3013 9.52344C40.3585 9.33594 40.3872 8.97917 40.3872 8.45312V8.01562ZM50.6569 12H48.4616V3.70312H50.5006V4.88281C50.8496 4.32552 51.1621 3.95833 51.4381 3.78125C51.7194 3.60417 52.0371 3.51562 52.3913 3.51562C52.8913 3.51562 53.373 3.65365 53.8366 3.92969L53.1569 5.84375C52.7871 5.60417 52.4433 5.48438 52.1256 5.48438C51.8183 5.48438 51.5579 5.57031 51.3444 5.74219C51.1308 5.90885 50.9616 6.21354 50.8366 6.65625C50.7168 7.09896 50.6569 8.02604 50.6569 9.4375V12ZM57.6688 3.70312H58.8875V3.07812C58.8875 2.38021 58.9604 1.85938 59.1063 1.51562C59.2573 1.17188 59.5307 0.893229 59.9266 0.679688C60.3276 0.460938 60.8328 0.351562 61.4422 0.351562C62.0672 0.351562 62.6792 0.445312 63.2781 0.632812L62.9813 2.16406C62.6323 2.08073 62.2964 2.03906 61.9734 2.03906C61.6557 2.03906 61.4266 2.11458 61.2859 2.26562C61.1505 2.41146 61.0828 2.69531 61.0828 3.11719V3.70312H62.7234V5.42969H61.0828V12H58.8875V5.42969H57.6688V3.70312ZM66.7588 3.70312H69.0947L71.0791 9.59375L73.0166 3.70312H75.29L72.3603 11.6875L71.8369 13.1328C71.6442 13.6172 71.4593 13.987 71.2822 14.2422C71.1103 14.4974 70.9098 14.7031 70.6806 14.8594C70.4567 15.0208 70.178 15.1458 69.8447 15.2344C69.5166 15.3229 69.1442 15.3672 68.7275 15.3672C68.3056 15.3672 67.8916 15.3229 67.4853 15.2344L67.29 13.5156C67.6338 13.5833 67.9436 13.6172 68.2197 13.6172C68.7301 13.6172 69.1077 13.4661 69.3525 13.1641C69.5973 12.8672 69.7848 12.487 69.915 12.0234L66.7588 3.70312ZM80.0362 7.73438C80.0362 7.00521 80.2159 6.29948 80.5753 5.61719C80.9347 4.9349 81.4425 4.41406 82.0987 4.05469C82.7602 3.69531 83.4972 3.51562 84.3097 3.51562C85.5649 3.51562 86.5935 3.92448 87.3956 4.74219C88.1977 5.55469 88.5987 6.58333 88.5987 7.82812C88.5987 9.08333 88.1925 10.125 87.38 10.9531C86.5727 11.776 85.5545 12.1875 84.3253 12.1875C83.5649 12.1875 82.8383 12.0156 82.1456 11.6719C81.4581 11.3281 80.9347 10.8255 80.5753 10.1641C80.2159 9.4974 80.0362 8.6875 80.0362 7.73438ZM82.2862 7.85156C82.2862 8.67448 82.4816 9.30469 82.8722 9.74219C83.2628 10.1797 83.7446 10.3984 84.3175 10.3984C84.8904 10.3984 85.3696 10.1797 85.755 9.74219C86.1456 9.30469 86.3409 8.66927 86.3409 7.83594C86.3409 7.02344 86.1456 6.39844 85.755 5.96094C85.3696 5.52344 84.8904 5.30469 84.3175 5.30469C83.7446 5.30469 83.2628 5.52344 82.8722 5.96094C82.4816 6.39844 82.2862 7.02865 82.2862 7.85156ZM101.712 12H99.5169V7.76562C99.5169 6.86979 99.47 6.29167 99.3763 6.03125C99.2825 5.76562 99.1289 5.5599 98.9153 5.41406C98.707 5.26823 98.4544 5.19531 98.1575 5.19531C97.7773 5.19531 97.4361 5.29948 97.1341 5.50781C96.832 5.71615 96.6236 5.99219 96.5091 6.33594C96.3997 6.67969 96.345 7.3151 96.345 8.24219V12H94.1497V3.70312H96.1888V4.92188C96.9127 3.98438 97.8242 3.51562 98.9231 3.51562C99.4075 3.51562 99.8502 3.60417 100.251 3.78125C100.652 3.95312 100.954 4.17448 101.158 4.44531C101.366 4.71615 101.509 5.02344 101.587 5.36719C101.671 5.71094 101.712 6.20312 101.712 6.84375V12ZM107.279 7.73438C107.279 7.00521 107.458 6.29948 107.818 5.61719C108.177 4.9349 108.685 4.41406 109.341 4.05469C110.003 3.69531 110.74 3.51562 111.552 3.51562C112.807 3.51562 113.836 3.92448 114.638 4.74219C115.44 5.55469 115.841 6.58333 115.841 7.82812C115.841 9.08333 115.435 10.125 114.622 10.9531C113.815 11.776 112.797 12.1875 111.568 12.1875C110.807 12.1875 110.081 12.0156 109.388 11.6719C108.701 11.3281 108.177 10.8255 107.818 10.1641C107.458 9.4974 107.279 8.6875 107.279 7.73438ZM109.529 7.85156C109.529 8.67448 109.724 9.30469 110.115 9.74219C110.505 10.1797 110.987 10.3984 111.56 10.3984C112.133 10.3984 112.612 10.1797 112.997 9.74219C113.388 9.30469 113.583 8.66927 113.583 7.83594C113.583 7.02344 113.388 6.39844 112.997 5.96094C112.612 5.52344 112.133 5.30469 111.56 5.30469C110.987 5.30469 110.505 5.52344 110.115 5.96094C109.724 6.39844 109.529 7.02865 109.529 7.85156ZM123.689 12L120.345 3.70312H122.65L124.213 7.9375L124.666 9.35156C124.785 8.99219 124.861 8.75521 124.892 8.64062C124.965 8.40625 125.043 8.17188 125.127 7.9375L126.705 3.70312H128.963L125.666 12H123.689Z" fill="#101010"/>
</svg>
