<svg width="155" height="36" viewBox="0 0 155 36" fill="none" xmlns="http://www.w3.org/2000/svg">
<path d="M0 0H155V30.566L0 36L0 0Z" fill="#E31E24"/>
<path d="M8.93036 8.25672H12.7388C13.7688 8.25672 14.5592 8.33731 15.1101 8.4985C15.667 8.65969 16.0832 8.89252 16.3587 9.19698C16.6401 9.50145 16.8287 9.87159 16.9245 10.3074C17.0263 10.7372 17.0772 11.4059 17.0772 12.3133V13.5759C17.0772 14.5013 16.9814 15.1759 16.7898 15.5997C16.5982 16.0236 16.2449 16.349 15.7299 16.5758C15.2209 16.8027 14.5532 16.9161 13.7269 16.9161H12.7119V22.7547H8.93036V8.25672ZM12.7119 10.7372V14.4266C12.8197 14.4326 12.9125 14.4356 12.9903 14.4356C13.3376 14.4356 13.5772 14.352 13.7089 14.1849C13.8466 14.0117 13.9155 13.6565 13.9155 13.1192V11.9282C13.9155 11.4327 13.8376 11.1103 13.682 10.9611C13.5263 10.8118 13.2029 10.7372 12.7119 10.7372Z" fill="white"/>
<path d="M25.6553 8.24776L24.6223 17.8564C24.4606 19.3727 24.287 20.4384 24.1013 21.0533C23.9157 21.6622 23.5564 22.098 23.0235 22.3607C22.4905 22.6234 21.6133 22.7547 20.3917 22.7547H18.1821V20.8831H18.4066C18.9036 20.8831 19.209 20.8443 19.3228 20.7667C19.4426 20.6831 19.5024 20.5578 19.5024 20.3906C19.5024 20.3787 19.4306 19.9697 19.2869 19.1638L17.3018 8.24776H20.5893L21.7839 17.2743L22.3588 8.24776H25.6553Z" fill="white"/>
<path d="M35.2393 14.5789H31.4578V12.0536C31.4578 11.3193 31.4159 10.8626 31.332 10.6835C31.2542 10.4984 31.0775 10.4059 30.8021 10.4059C30.4907 10.4059 30.2931 10.5163 30.2093 10.7372C30.1254 10.9581 30.0835 11.4357 30.0835 12.17V18.9041C30.0835 19.6085 30.1254 20.0682 30.2093 20.2831C30.2931 20.4981 30.4817 20.6055 30.7751 20.6055C31.0566 20.6055 31.2392 20.4981 31.3231 20.2831C31.4129 20.0682 31.4578 19.5638 31.4578 18.7698V16.9519H35.2393V17.5161C35.2393 19.0145 35.1315 20.0772 34.9159 20.704C34.7064 21.3309 34.2363 21.8801 33.5057 22.3517C32.7812 22.8233 31.8859 23.0592 30.8201 23.0592C29.7122 23.0592 28.799 22.8592 28.0805 22.4592C27.3619 22.0592 26.8858 21.507 26.6523 20.8025C26.4188 20.0921 26.302 19.0265 26.302 17.6056V13.37C26.302 12.3252 26.3379 11.5432 26.4098 11.0238C26.4816 10.4984 26.6942 9.99397 27.0475 9.5104C27.4068 9.02684 27.9008 8.64775 28.5296 8.37313C29.1643 8.09255 29.8919 7.95225 30.7123 7.95225C31.8261 7.95225 32.7452 8.16717 33.4698 8.59701C34.1944 9.02684 34.6704 9.56413 34.898 10.2089C35.1255 10.8477 35.2393 11.8446 35.2393 13.1998V14.5789Z" fill="white"/>
<path d="M45.4252 14.5789H41.6436V12.0536C41.6436 11.3193 41.6017 10.8626 41.5179 10.6835C41.44 10.4984 41.2634 10.4059 40.9879 10.4059C40.6765 10.4059 40.4789 10.5163 40.3951 10.7372C40.3113 10.9581 40.2694 11.4357 40.2694 12.17V18.9041C40.2694 19.6085 40.3113 20.0682 40.3951 20.2831C40.4789 20.4981 40.6676 20.6055 40.961 20.6055C41.2424 20.6055 41.4251 20.4981 41.5089 20.2831C41.5987 20.0682 41.6436 19.5638 41.6436 18.7698V16.9519H45.4252V17.5161C45.4252 19.0145 45.3174 20.0772 45.1018 20.704C44.8922 21.3309 44.4221 21.8801 43.6916 22.3517C42.967 22.8233 42.0718 23.0592 41.0059 23.0592C39.8981 23.0592 38.9849 22.8592 38.2663 22.4592C37.5477 22.0592 37.0717 21.507 36.8381 20.8025C36.6046 20.0921 36.4878 19.0265 36.4878 17.6056V13.37C36.4878 12.3252 36.5238 11.5432 36.5956 11.0238C36.6675 10.4984 36.8801 9.99397 37.2334 9.5104C37.5927 9.02684 38.0867 8.64775 38.7154 8.37313C39.3502 8.09255 40.0777 7.95225 40.8981 7.95225C42.0119 7.95225 42.9311 8.16717 43.6557 8.59701C44.3802 9.02684 44.8563 9.56413 45.0838 10.2089C45.3114 10.8477 45.4252 11.8446 45.4252 13.1998V14.5789Z" fill="white"/>
<path d="M46.7815 8.24776H50.572L50.5899 14.3729C51.3025 14.355 51.6708 13.961 51.6948 13.1909L51.7666 10.3611C51.7906 9.31638 51.9942 8.61193 52.3774 8.24776H55.8715C55.5302 8.59999 55.3625 9.32832 55.3685 10.4328L55.3864 12.9222C55.3984 14.4266 54.5481 15.2833 52.8355 15.4923C54.5481 15.7012 55.3984 16.5698 55.3864 18.0981L55.3685 20.4085C55.3625 21.507 55.5302 22.289 55.8715 22.7547H52.3774C51.9702 22.3905 51.7666 21.6861 51.7666 20.6413V17.8116C51.7666 17.4534 51.6558 17.1668 51.4343 16.9519C51.2187 16.731 50.9372 16.6176 50.5899 16.6116L50.572 22.7547H46.7815V8.24776Z" fill="white"/>
<path d="M65.0873 22.7547H61.9255V16.1549L59.9584 22.7547H56.644V8.24776H59.8057V14.7938L61.9255 8.24776H65.0873V22.7547Z" fill="white"/>
<path d="M75.0396 22.7547H71.8778V16.1549L69.9107 22.7547H66.5963V8.24776H69.758V14.7938L71.8778 8.24776H75.0396V22.7547ZM71.8149 5.09564H73.3419C73.306 5.90755 73.0665 6.56126 72.6233 7.05676C72.1862 7.55227 71.5754 7.80002 70.791 7.80002C70.0005 7.80002 69.3867 7.55227 68.9496 7.05676C68.5185 6.55529 68.2849 5.90158 68.249 5.09564H69.776C69.8478 5.91352 70.1862 6.32246 70.791 6.32246C71.4018 6.32246 71.7431 5.91352 71.8149 5.09564Z" fill="white"/>
<path d="M89.5818 8.25672L91.7465 22.7547H87.8752L87.6865 20.1488H86.3302L86.1057 22.7547H82.1894L84.1116 8.25672H89.5818ZM87.5788 17.5788C87.3871 15.937 87.1955 13.9102 87.0039 11.4984C86.6207 14.2684 86.3811 16.2952 86.2853 17.5788H87.5788Z" fill="white"/>
<path d="M101.097 22.7547H97.3065V11.1491H96.1837V22.7547H92.3932V8.24776H101.097V22.7547Z" fill="white"/>
<path d="M111.319 22.7547H107.528V11.1491H106.406V22.7547H102.615V8.24776H111.319V22.7547Z" fill="white"/>
<path d="M112.837 8.25672H119.142V11.1581H116.618V13.9073H118.981V16.6654H116.618V19.8533H119.394V22.7547H112.837V8.25672Z" fill="white"/>
<path d="M128.107 8.25672V11.1581H125.861V22.7547H122.079V11.1581H119.843V8.25672H128.107Z" fill="white"/>
<path d="M137.412 22.7547H134.25V16.1549L132.283 22.7547H128.969V8.24776H132.131V14.7938L134.25 8.24776H137.412V22.7547Z" fill="white"/>
<path d="M146.538 8.25672V11.1581H144.293V22.7547H140.511V11.1581H138.274V8.25672H146.538Z" fill="white"/>
</svg>
